<?xml version="1.0" standalone="no"?>
<svg xmlns:xlink="http://www.w3.org/1999/xlink" id="wave" style="transform:rotate(180deg); transition: 0.3s" viewBox="0 0 1440 100" version="1.1" xmlns="http://www.w3.org/2000/svg"><defs><linearGradient id="sw-gradient-0" x1="0" x2="0" y1="1" y2="0"><stop stop-color="rgba(255, 249, 234, 1)" offset="0%"/><stop stop-color="rgba(255, 249, 234, 1)" offset="100%"/></linearGradient></defs><path style="transform:translate(0, 0px); opacity:1" fill="url(#sw-gradient-0)" d="M0,10L20,21.7C40,33,80,57,120,56.7C160,57,200,33,240,28.3C280,23,320,37,360,45C400,53,440,57,480,55C520,53,560,47,600,36.7C640,27,680,13,720,15C760,17,800,33,840,43.3C880,53,920,57,960,55C1000,53,1040,47,1080,43.3C1120,40,1160,40,1200,41.7C1240,43,1280,47,1320,53.3C1360,60,1400,70,1440,68.3C1480,67,1520,53,1560,50C1600,47,1640,53,1680,46.7C1720,40,1760,20,1800,13.3C1840,7,1880,13,1920,20C1960,27,2000,33,2040,36.7C2080,40,2120,40,2160,35C2200,30,2240,20,2280,13.3C2320,7,2360,3,2400,6.7C2440,10,2480,20,2520,35C2560,50,2600,70,2640,80C2680,90,2720,90,2760,86.7C2800,83,2840,77,2860,73.3L2880,70L2880,100L2860,100C2840,100,2800,100,2760,100C2720,100,2680,100,2640,100C2600,100,2560,100,2520,100C2480,100,2440,100,2400,100C2360,100,2320,100,2280,100C2240,100,2200,100,2160,100C2120,100,2080,100,2040,100C2000,100,1960,100,1920,100C1880,100,1840,100,1800,100C1760,100,1720,100,1680,100C1640,100,1600,100,1560,100C1520,100,1480,100,1440,100C1400,100,1360,100,1320,100C1280,100,1240,100,1200,100C1160,100,1120,100,1080,100C1040,100,1000,100,960,100C920,100,880,100,840,100C800,100,760,100,720,100C680,100,640,100,600,100C560,100,520,100,480,100C440,100,400,100,360,100C320,100,280,100,240,100C200,100,160,100,120,100C80,100,40,100,20,100L0,100Z"/></svg>